<svg id="Layer_1" data-name="Layer 1" xmlns="http://www.w3.org/2000/svg" xmlns:xlink="http://www.w3.org/1999/xlink" viewBox="0 0 100.84 34.1"><defs><style>.cls-1{fill:#434856;}.cls-2{fill:#4185c1;}.cls-3{fill:url(#linear-gradient);}</style><linearGradient id="linear-gradient" x1="-234.28" y1="422.01" x2="-234.88" y2="420.93" gradientTransform="matrix(20.75, 0, 0, -23.8, 4878.5, 10041.89)" gradientUnits="userSpaceOnUse"><stop offset="0" stop-color="#9da7ee"/><stop offset="1" stop-color="#64d8d5"/></linearGradient></defs><title>logo_02_black</title><g id="logo-final"><g id="Group-12"><g id="Group-4"><path id="Academy-Copy-5" class="cls-1" d="M42.18,25l-.91-2.11h-4.1L36.25,25H33.93l4.23-9.79h2.11L44.5,25Zm-3-6.87L38,21h2.45ZM49,23.25a2.41,2.41,0,0,0,1.89-1l1.25,1.4A4.33,4.33,0,0,1,49,25.11,4.08,4.08,0,0,1,46.16,24,3.62,3.62,0,0,1,45,21.24a3.64,3.64,0,0,1,1.18-2.81A4,4,0,0,1,49,17.34a4.37,4.37,0,0,1,1.65.34,4.16,4.16,0,0,1,1.46,1L51,20.1a2.48,2.48,0,0,0-.89-.67,2.51,2.51,0,0,0-1-.24,2,2,0,0,0-1.42.54,1.92,1.92,0,0,0-.59,1.5,1.9,1.9,0,0,0,.59,1.49A2,2,0,0,0,49,23.25ZM60,25H58v-.91a2.47,2.47,0,0,1-2,1,3,3,0,0,1-2-.69,2.31,2.31,0,0,1-.81-1.85A2,2,0,0,1,54,20.84a4,4,0,0,1,2.3-.57h1.57v0q0-1.2-1.27-1.2a3.44,3.44,0,0,0-1.16.22,3.75,3.75,0,0,0-1,.54l-.94-1.36a5.62,5.62,0,0,1,3.39-1.08A3.5,3.5,0,0,1,59.1,18,2.6,2.6,0,0,1,60,20.2Zm-2.11-2.87v-.36H56.54q-1.26,0-1.26.78a.72.72,0,0,0,.3.62,1.46,1.46,0,0,0,.86.22,1.53,1.53,0,0,0,1-.34A1.12,1.12,0,0,0,57.86,22.13Zm7,3A3.17,3.17,0,0,1,62.52,24a4,4,0,0,1-1-2.81,3.82,3.82,0,0,1,1-2.75,3.21,3.21,0,0,1,2.39-1.07,2.87,2.87,0,0,1,2.24,1v-3.7h2.1V25h-2.1V24A2.73,2.73,0,0,1,64.9,25.11Zm-1.32-3.86a2.09,2.09,0,0,0,.55,1.49,1.7,1.7,0,0,0,1.27.58,1.59,1.59,0,0,0,1.24-.58,2.18,2.18,0,0,0,.51-1.5,2.29,2.29,0,0,0-.51-1.53,1.58,1.58,0,0,0-1.25-.61,1.63,1.63,0,0,0-1.27.62A2.25,2.25,0,0,0,63.58,21.25Zm14.15,2.66a4.21,4.21,0,0,1-3,1.2,4,4,0,0,1-2.84-1.06,3.71,3.71,0,0,1-1.12-2.84,3.66,3.66,0,0,1,1.14-2.83,3.85,3.85,0,0,1,2.69-1.05,3.9,3.9,0,0,1,2.64.94,3.23,3.23,0,0,1,1.09,2.58V22H72.86a1.5,1.5,0,0,0,.64,1,2.06,2.06,0,0,0,1.23.39,2.42,2.42,0,0,0,1.82-.74Zm-1.51-3.43a1.49,1.49,0,0,0-.5-1,1.59,1.59,0,0,0-1.06-.36,1.89,1.89,0,0,0-1.14.38,1.45,1.45,0,0,0-.6,1Zm10.56.46V25H84.67V20.88a2.47,2.47,0,0,0-.27-1.32,1,1,0,0,0-.88-.42,1.5,1.5,0,0,0-1.08.45A1.78,1.78,0,0,0,82,20.94V25h-2.1V17.47H82v.85a2.6,2.6,0,0,1,2-1,2.16,2.16,0,0,1,1.3.42,2.73,2.73,0,0,1,.88,1,3,3,0,0,1,1.17-1.06,3.2,3.2,0,0,1,1.48-.38,2.94,2.94,0,0,1,2.14.79,3.05,3.05,0,0,1,.81,2.29V25H89.61V20.88q0-1.74-1.27-1.74a1.5,1.5,0,0,0-1.09.45A1.8,1.8,0,0,0,86.78,20.94Zm8.15,7a3.05,3.05,0,0,1-2.09-.9l1-1.55a1.57,1.57,0,0,0,1.09.52.61.61,0,0,0,.5-.29,1,1,0,0,0,.21-.61q0-.32-2.91-7.67h2.24l1.83,4.69,1.83-4.69h2.24l-3.5,8.88a2.5,2.5,0,0,1-1,1.2A2.59,2.59,0,0,1,94.93,28Z" transform="translate(0 -0.4)"/><path id="By-Ruangguru" class="cls-1" d="M36.82,33H34.68V28.11h1.9a2.75,2.75,0,0,1,.86.12,1.18,1.18,0,0,1,.54.32,1.25,1.25,0,0,1,.34.85,1,1,0,0,1-.36.85l-.18.12-.17.08a1.28,1.28,0,0,1,.72.41,1.14,1.14,0,0,1,.27.77,1.32,1.32,0,0,1-.35.9A1.84,1.84,0,0,1,36.82,33Zm-1.32-2.86h1.05q.9,0,.9-.61a.57.57,0,0,0-.22-.5,1.17,1.17,0,0,0-.67-.15H35.51Zm0,2.1H36.8a1.38,1.38,0,0,0,.7-.14.58.58,0,0,0,.24-.54q0-.65-1-.65H35.51ZM40,34.48a1.35,1.35,0,0,1-.92-.37l.36-.64a.74.74,0,0,0,.51.23.54.54,0,0,0,.43-.19.62.62,0,0,0,.16-.41q0-.1-1.51-3.83h.84L41,32l1.11-2.74h.84L41.11,33.7a1.35,1.35,0,0,1-.46.57A1.14,1.14,0,0,1,40,34.48Zm9.49-4.79a1.42,1.42,0,0,1-1.06,1.53L49.69,33H48.64l-1.17-1.65H46.38V33h-.83V28.11h1.82a2.64,2.64,0,0,1,1.6.38A1.44,1.44,0,0,1,49.46,29.7Zm-2.05.91a1.51,1.51,0,0,0,1-.22.87.87,0,0,0,.25-.7.74.74,0,0,0-.26-.66,1.72,1.72,0,0,0-.92-.18h-1v1.75Zm5.73.69v-2h.78V33h-.78v-.68a1.46,1.46,0,0,1-2.26.35,1.5,1.5,0,0,1-.39-1.11V29.28h.78v2q0,1,.85,1a1,1,0,0,0,.71-.27A1,1,0,0,0,53.15,31.29ZM58.08,33h-.71v-.5a1.53,1.53,0,0,1-1.24.55,1.42,1.42,0,0,1-1-.33,1.1,1.1,0,0,1-.38-.88.92.92,0,0,1,.41-.82,1.94,1.94,0,0,1,1.1-.27h1v-.14q0-.74-.83-.74a1.94,1.94,0,0,0-1.08.38L55,29.76a2.41,2.41,0,0,1,1.54-.54,1.67,1.67,0,0,1,1.07.33,1.26,1.26,0,0,1,.42,1Zm-.78-1.39V31.3h-.88q-.85,0-.85.53a.47.47,0,0,0,.21.42,1,1,0,0,0,.58.14,1.06,1.06,0,0,0,.65-.21A.67.67,0,0,0,57.3,31.61ZM60,31v2h-.78V29.28H60V30a1.46,1.46,0,0,1,2.26-.35,1.5,1.5,0,0,1,.39,1.11V33h-.78V31q0-1-.85-1a1,1,0,0,0-.71.27A1,1,0,0,0,60,31Zm7.18-1.71v3.25A1.92,1.92,0,0,1,66.6,34a2,2,0,0,1-1.38.49A2.42,2.42,0,0,1,63.71,34l.37-.6a1.82,1.82,0,0,0,1.1.41,1.29,1.29,0,0,0,.88-.29,1.16,1.16,0,0,0,.33-.92v-.48a1.34,1.34,0,0,1-.5.53,1.39,1.39,0,0,1-.73.2,1.58,1.58,0,0,1-1.22-.52,2,2,0,0,1,0-2.58,1.58,1.58,0,0,1,1.21-.52,1.44,1.44,0,0,1,1.2.61v-.55ZM64.23,31a1.17,1.17,0,0,0,.28.79,1,1,0,0,0,.76.33,1,1,0,0,0,.78-.32,1.14,1.14,0,0,0,.3-.8,1.17,1.17,0,0,0-.3-.81,1,1,0,0,0-.78-.33.93.93,0,0,0-.76.34A1.22,1.22,0,0,0,64.23,31Zm7.48-1.72v3.25A1.92,1.92,0,0,1,71.18,34a2,2,0,0,1-1.38.49A2.42,2.42,0,0,1,68.29,34l.37-.6a1.82,1.82,0,0,0,1.1.41,1.29,1.29,0,0,0,.88-.29,1.16,1.16,0,0,0,.33-.92v-.48a1.34,1.34,0,0,1-.5.53,1.39,1.39,0,0,1-.73.2,1.58,1.58,0,0,1-1.22-.52,2,2,0,0,1,0-2.58,1.58,1.58,0,0,1,1.21-.52,1.44,1.44,0,0,1,1.2.61v-.55ZM68.81,31a1.17,1.17,0,0,0,.28.79,1,1,0,0,0,.76.33,1,1,0,0,0,.78-.32,1.14,1.14,0,0,0,.3-.8,1.17,1.17,0,0,0-.3-.81,1,1,0,0,0-.78-.33.93.93,0,0,0-.76.34A1.22,1.22,0,0,0,68.81,31Zm6.64.29v-2h.78V33h-.78v-.68a1.46,1.46,0,0,1-2.26.35,1.5,1.5,0,0,1-.39-1.11V29.28h.78v2q0,1,.85,1a1,1,0,0,0,.71-.27A1,1,0,0,0,75.45,31.29ZM79.33,30a1,1,0,0,0-.87.38,1.61,1.61,0,0,0-.29,1V33h-.78V29.28h.78V30a1.62,1.62,0,0,1,.51-.57,1.24,1.24,0,0,1,.69-.23V30Zm3.43,1.28v-2h.78V33h-.78v-.68a1.46,1.46,0,0,1-2.26.35,1.5,1.5,0,0,1-.39-1.11V29.28h.78v2q0,1,.85,1a1,1,0,0,0,.71-.27A1,1,0,0,0,82.76,31.29Z" transform="translate(0 -0.4)"/><path id="Skill-Copy-6" class="cls-1" d="M38.35,2.91a1.32,1.32,0,0,0-.86.26.84.84,0,0,0-.32.69.78.78,0,0,0,.38.68,7,7,0,0,0,1.78.59,5,5,0,0,1,2.16,1,2.54,2.54,0,0,1,.77,2,2.64,2.64,0,0,1-1,2.14,3.93,3.93,0,0,1-2.6.82A6,6,0,0,1,34.5,9.39l1.3-1.6a4.63,4.63,0,0,0,2.93,1.39,1.54,1.54,0,0,0,.95-.26.83.83,0,0,0,.34-.7.82.82,0,0,0-.36-.7A4.75,4.75,0,0,0,38.21,7a6.27,6.27,0,0,1-2.5-1.06,2.5,2.5,0,0,1-.79-2,2.53,2.53,0,0,1,1-2.15A4,4,0,0,1,38.42,1a6,6,0,0,1,2,.34,5.25,5.25,0,0,1,1.71,1L41,3.87A4.31,4.31,0,0,0,38.35,2.91ZM46,11h-2.1V.61H46V5.95l2.34-2.49H51L48.14,6.51l3,4.49H48.63L46.71,8.12,46,8.83Zm8.33,0h-2.1V3.47h2.1ZM52.42,2.52a1.23,1.23,0,0,1-.35-.88,1.19,1.19,0,0,1,.36-.87,1.25,1.25,0,0,1,1.75,0,1.19,1.19,0,0,1,.36.87,1.19,1.19,0,0,1-.36.88,1.19,1.19,0,0,1-.87.36A1.23,1.23,0,0,1,52.42,2.52Zm6,8.48h-2.1V.61h2.1Zm4.09,0h-2.1V.61h2.1Z" transform="translate(0 -0.4)"/></g><g id="Group-Copy-7"><path id="Path-Copy-4" class="cls-2" d="M21.58,2.3l7.88,21.15a1,1,0,0,1-.94,1.35H21.17a1,1,0,0,1-.95-.68L12.36,1h7.35A2,2,0,0,1,21.58,2.3Z" transform="translate(0 -0.4)"/><path id="Combined-Shape" class="cls-3" d="M15.94,10h3.65a1,1,0,0,1,.86,1.51L12.8,24.31a1,1,0,0,1-.86.49H1.77a1,1,0,0,1-.86-1.51L4.8,16.8H1a1,1,0,0,1-.85-1.53L8.77,1.47A1,1,0,0,1,9.62,1H19.75a1,1,0,0,1,.85,1.53Z" transform="translate(0 -0.4)"/></g></g></g></svg>